<svg width="256" height="256" viewBox="0 0 256 256" fill="none" xmlns="http://www.w3.org/2000/svg">
<g clip-path="url(#clip0_1_2)">
<path d="M91.6667 147.667C98.7391 147.667 105.522 144.857 110.523 139.856C115.524 134.855 118.333 128.072 118.333 121C118.333 106.28 113 99.6667 107.667 89C96.232 66.1413 105.277 45.7573 129 25C134.333 51.6667 150.333 77.2667 171.667 94.3333C193 111.4 203.667 131.667 203.667 153C203.667 162.805 201.735 172.515 197.983 181.574C194.231 190.633 188.731 198.864 181.797 205.797C174.864 212.731 166.633 218.231 157.574 221.983C148.515 225.735 138.805 227.667 129 227.667C119.195 227.667 109.485 225.735 100.426 221.983C91.3673 218.231 83.1361 212.731 76.2027 205.797C69.2692 198.864 63.7693 190.633 60.017 181.574C56.2646 172.515 54.3333 162.805 54.3333 153C54.3333 140.701 58.952 128.531 65 121C65 128.072 67.8095 134.855 72.8105 139.856C77.8114 144.857 84.5942 147.667 91.6667 147.667Z" fill="#0A0A0A" stroke="#FB2C36" stroke-width="8" stroke-linecap="round" stroke-linejoin="round"/>
</g>
<defs>
<clipPath id="clip0_1_2">
<rect width="256" height="256" fill="white"/>
</clipPath>
</defs>
</svg>
